solid
facet normal -1.0 0.0 0.0
 outer loop
  vertex -90.0 5.0 45.0
  vertex -90.0 24.2 45.0
  vertex -90.0 24.2 -45.0
 endloop
endfacet
facet normal -1.0 0.0 0.0
 outer loop
  vertex -90.0 5.0 45.0
  vertex -90.0 24.2 -45.0
  vertex -90.0 5.0 -45.0
 endloop
endfacet
facet normal 0.0 0.0 -1.0
 outer loop
  vertex -90.0 5.0 -45.0
  vertex -90.0 24.2 -45.0
  vertex -30.0 24.2 -45.0
 endloop
endfacet
facet normal 0.0 1.0 0.0
 outer loop
  vertex -30.0 24.2 -45.0
  vertex -90.0 24.2 -45.0
  vertex -90.0 24.2 45.0
 endloop
endfacet
facet normal -1.0 0.0 0.0
 outer loop
  vertex -90.0 -5.0 45.0
  vertex -90.0 5.0 45.0
  vertex -90.0 5.0 -45.0
 endloop
endfacet
facet normal -1.0 0.0 0.0
 outer loop
  vertex -90.0 -5.0 45.0
  vertex -90.0 5.0 -45.0
  vertex -90.0 -5.0 -45.0
 endloop
endfacet
facet normal 0.0 0.0 -1.0
 outer loop
  vertex -90.0 -5.0 -45.0
  vertex 90.0 5.0 -45.0
  vertex 90.0 -5.0 -45.0
 endloop
endfacet
facet normal 1.0 0.0 0.0
 outer loop
  vertex 90.0 -5.0 -45.0
  vertex 90.0 5.0 -45.0
  vertex 90.0 5.0 45.0
 endloop
endfacet
facet normal 1.0 0.0 0.0
 outer loop
  vertex 90.0 -5.0 -45.0
  vertex 90.0 5.0 45.0
  vertex 90.0 -5.0 45.0
 endloop
endfacet
facet normal 0.0 0.0 1.0
 outer loop
  vertex 90.0 -5.0 45.0
  vertex -90.0 5.0 45.0
  vertex -90.0 -5.0 45.0
 endloop
endfacet
facet normal 0.0 -1.0 0.0
 outer loop
  vertex -90.0 -5.0 -45.0
  vertex 90.0 -5.0 -45.0
  vertex 90.0 -5.0 45.0
 endloop
endfacet
facet normal 0.0 -1.0 0.0
 outer loop
  vertex -90.0 -5.0 -45.0
  vertex 90.0 -5.0 45.0
  vertex -90.0 -5.0 45.0
 endloop
endfacet
facet normal 1.0 0.0 0.0
 outer loop
  vertex 90.0 5.0 -45.0
  vertex 90.0 24.2 -45.0
  vertex 90.0 24.2 45.0
 endloop
endfacet
facet normal 1.0 0.0 0.0
 outer loop
  vertex 90.0 5.0 -45.0
  vertex 90.0 24.2 45.0
  vertex 90.0 5.0 45.0
 endloop
endfacet
facet normal 0.0 -0.0 1.0
 outer loop
  vertex 90.0 5.0 45.0
  vertex 90.0 24.2 45.0
  vertex 30.0 24.2 45.0
 endloop
endfacet
facet normal 0.0 1.0 -0.0
 outer loop
  vertex 90.0 24.2 -45.0
  vertex 30.0 24.2 45.0
  vertex 90.0 24.2 45.0
 endloop
endfacet
facet normal -0.0 0.0 -1.0
 outer loop
  vertex -30.0 5.0 -45.0
  vertex -90.0 -5.0 -45.0
  vertex -90.0 5.0 -45.0
 endloop
endfacet
facet normal 0.0 -0.0 -1.0
 outer loop
  vertex 30.0 5.0 -45.0
  vertex 90.0 5.0 -45.0
  vertex -90.0 -5.0 -45.0
 endloop
endfacet
facet normal -0.0 0.0 -1.0
 outer loop
  vertex 30.0 5.0 -45.0
  vertex -90.0 -5.0 -45.0
  vertex -30.0 5.0 -45.0
 endloop
endfacet
facet normal 0.0 0.0 -1.0
 outer loop
  vertex -90.0 5.0 -45.0
  vertex -30.0 24.2 -45.0
  vertex -30.0 5.0 -45.0
 endloop
endfacet
facet normal 0.0 1.0 0.0
 outer loop
  vertex -30.0 5.0 -15.0
  vertex -30.0 5.0 15.0
  vertex 30.0 5.0 -15.0
 endloop
endfacet
facet normal 0.0 1.0 0.0
 outer loop
  vertex -90.0 5.0 -45.0
  vertex -90.0 5.0 45.0
  vertex -45.0 5.0 22.5
 endloop
endfacet
facet normal 0.0 1.0 0.0
 outer loop
  vertex -30.0 5.0 -45.0
  vertex -30.0 5.0 -15.0
  vertex 30.0 5.0 -15.0
 endloop
endfacet
facet normal 0.0 1.0 0.0
 outer loop
  vertex -30.0 5.0 -15.0
  vertex -90.0 5.0 -45.0
  vertex -45.0 5.0 22.5
 endloop
endfacet
facet normal 0.0 1.0 0.0
 outer loop
  vertex -30.0 5.0 -45.0
  vertex 30.0 5.0 -15.0
  vertex 30.0 5.0 -45.0
 endloop
endfacet
facet normal 0.0 1.0 0.0
 outer loop
  vertex 30.0 5.0 -15.0
  vertex 45.0 5.0 -22.5
  vertex 30.0 5.0 -45.0
 endloop
endfacet
facet normal 0.0 1.0 0.0
 outer loop
  vertex 45.0 5.0 -22.5
  vertex 90.0 5.0 -45.0
  vertex 30.0 5.0 -45.0
 endloop
endfacet
facet normal 0.0 1.0 0.0
 outer loop
  vertex -90.0 5.0 -45.0
  vertex -30.0 5.0 -15.0
  vertex -30.0 5.0 -45.0
 endloop
endfacet
facet normal 0.0 1.0 0.0
 outer loop
  vertex -45.0 5.0 22.5
  vertex -30.0 5.0 15.0
  vertex -30.0 5.0 -15.0
 endloop
endfacet
facet normal 0.0 -0.0 1.0
 outer loop
  vertex -30.0 5.0 45.0
  vertex -30.0 24.2 45.0
  vertex -90.0 24.2 45.0
 endloop
endfacet
facet normal 0.0 1.0 -0.0
 outer loop
  vertex 90.0 5.0 -45.0
  vertex 45.0 5.0 -22.5
  vertex 90.0 5.0 45.0
 endloop
endfacet
facet normal -0.0 1.0 0.0
 outer loop
  vertex -90.0 5.0 45.0
  vertex -30.0 5.0 45.0
  vertex -45.0 5.0 22.5
 endloop
endfacet
facet normal -0.0 1.0 0.0
 outer loop
  vertex -45.0 5.0 22.5
  vertex -30.0 5.0 45.0
  vertex -30.0 5.0 15.0
 endloop
endfacet
facet normal 0.0 1.0 0.0
 outer loop
  vertex -30.0 5.0 15.0
  vertex -30.0 5.0 45.0
  vertex 30.0 5.0 45.0
 endloop
endfacet
facet normal 0.0 1.0 0.0
 outer loop
  vertex 30.0 5.0 15.0
  vertex 30.0 5.0 45.0
  vertex 90.0 5.0 45.0
 endloop
endfacet
facet normal 0.0 1.0 -0.0
 outer loop
  vertex 30.0 5.0 15.0
  vertex -30.0 5.0 15.0
  vertex 30.0 5.0 45.0
 endloop
endfacet
facet normal 0.0 1.0 -0.0
 outer loop
  vertex 45.0 5.0 -22.5
  vertex 30.0 5.0 15.0
  vertex 90.0 5.0 45.0
 endloop
endfacet
facet normal -0.0 1.0 0.0
 outer loop
  vertex 30.0 5.0 -15.0
  vertex 30.0 5.0 15.0
  vertex 45.0 5.0 -22.5
 endloop
endfacet
facet normal 0.0 1.0 -0.0
 outer loop
  vertex 30.0 5.0 -15.0
  vertex -30.0 5.0 15.0
  vertex 30.0 5.0 15.0
 endloop
endfacet
facet normal 0.0 -0.0 1.0
 outer loop
  vertex 90.0 -5.0 45.0
  vertex 90.0 5.0 45.0
  vertex 30.0 5.0 45.0
 endloop
endfacet
facet normal 0.0 0.0 1.0
 outer loop
  vertex 90.0 -5.0 45.0
  vertex -30.0 5.0 45.0
  vertex -90.0 5.0 45.0
 endloop
endfacet
facet normal 0.0 0.0 1.0
 outer loop
  vertex 90.0 -5.0 45.0
  vertex 30.0 5.0 45.0
  vertex -30.0 5.0 45.0
 endloop
endfacet
facet normal 0.0 0.0 1.0
 outer loop
  vertex -30.0 5.0 45.0
  vertex -90.0 24.2 45.0
  vertex -90.0 5.0 45.0
 endloop
endfacet
facet normal 0.0 1.0 -0.0
 outer loop
  vertex 30.0 24.2 15.0
  vertex -30.0 24.2 45.0
  vertex 30.0 24.2 45.0
 endloop
endfacet
facet normal 0.0 1.0 0.0
 outer loop
  vertex 90.0 24.2 -45.0
  vertex 30.0 24.2 -15.0
  vertex 30.0 24.2 15.0
 endloop
endfacet
facet normal 0.0 0.0 1.0
 outer loop
  vertex 90.0 5.0 45.0
  vertex 30.0 24.2 45.0
  vertex 30.0 5.0 45.0
 endloop
endfacet
facet normal -1.0 0.0 0.0
 outer loop
  vertex 30.0 24.2 -15.0
  vertex 30.0 17.8 -15.0
  vertex 30.0 24.2 15.0
 endloop
endfacet
facet normal -1.0 -0.0 0.0
 outer loop
  vertex -30.0 24.2 -15.0
  vertex -30.0 9.8 -22.5
  vertex -30.0 11.4 -15.0
 endloop
endfacet
facet normal -1.0 0.0 0.0
 outer loop
  vertex -30.0 5.0 -15.0
  vertex -30.0 11.4 -15.0
  vertex -30.0 9.8 -22.5
 endloop
endfacet
facet normal -1.0 0.0 -0.0
 outer loop
  vertex -30.0 24.2 -15.0
  vertex -30.0 24.2 -45.0
  vertex -30.0 9.8 -22.5
 endloop
endfacet
facet normal -1.0 0.0 0.0
 outer loop
  vertex -30.0 24.2 -45.0
  vertex -30.0 5.0 -45.0
  vertex -30.0 9.8 -22.5
 endloop
endfacet
facet normal -1.0 0.0 0.0
 outer loop
  vertex -30.0 5.0 -15.0
  vertex -30.0 9.8 -22.5
  vertex -30.0 5.0 -45.0
 endloop
endfacet
facet normal 0.0 0.0 1.0
 outer loop
  vertex 30.0 5.0 -15.0
  vertex -30.0 24.2 -15.0
  vertex -30.0 11.4 -15.0
 endloop
endfacet
facet normal 0.0 0.0 1.0
 outer loop
  vertex 30.0 5.0 -15.0
  vertex -30.0 11.4 -15.0
  vertex -30.0 5.0 -15.0
 endloop
endfacet
facet normal 0.0 0.0 -1.0
 outer loop
  vertex 30.0 5.0 -45.0
  vertex 30.0 24.2 -45.0
  vertex 90.0 24.2 -45.0
 endloop
endfacet
facet normal -1.0 0.0 0.0
 outer loop
  vertex -30.0 17.8 15.0
  vertex -30.0 19.4 22.5
  vertex -30.0 24.2 15.0
 endloop
endfacet
facet normal -1.0 0.0 0.0
 outer loop
  vertex -30.0 17.8 15.0
  vertex -30.0 5.0 15.0
  vertex -30.0 19.4 22.5
 endloop
endfacet
facet normal -1.0 0.0 0.0
 outer loop
  vertex -30.0 5.0 45.0
  vertex -30.0 19.4 22.5
  vertex -30.0 5.0 15.0
 endloop
endfacet
facet normal 0.0 0.0 -1.0
 outer loop
  vertex -30.0 24.2 15.0
  vertex 30.0 24.2 15.0
  vertex -30.0 17.8 15.0
 endloop
endfacet
facet normal 0.0 0.0 -1.0
 outer loop
  vertex -30.0 5.0 15.0
  vertex -30.0 17.8 15.0
  vertex 30.0 24.2 15.0
 endloop
endfacet
facet normal -0.0 0.0 -1.0
 outer loop
  vertex 30.0 11.4 15.0
  vertex -30.0 5.0 15.0
  vertex 30.0 24.2 15.0
 endloop
endfacet
facet normal 0.0 -0.0 -1.0
 outer loop
  vertex 30.0 11.4 15.0
  vertex 30.0 5.0 15.0
  vertex -30.0 5.0 15.0
 endloop
endfacet
facet normal -1.0 0.0 0.0
 outer loop
  vertex 30.0 9.8 22.5
  vertex 30.0 24.2 45.0
  vertex 30.0 24.2 15.0
 endloop
endfacet
facet normal -1.0 0.0 0.0
 outer loop
  vertex 30.0 9.8 22.5
  vertex 30.0 5.0 45.0
  vertex 30.0 24.2 45.0
 endloop
endfacet
facet normal 0.0 0.0 1.0
 outer loop
  vertex 30.0 5.0 45.0
  vertex -30.0 24.2 45.0
  vertex -30.0 5.0 45.0
 endloop
endfacet
facet normal -1.0 0.0 -0.0
 outer loop
  vertex 30.0 9.8 22.5
  vertex 30.0 11.4 15.0
  vertex 30.0 5.0 15.0
 endloop
endfacet
facet normal 0.0 1.0 -0.0
 outer loop
  vertex -30.0 24.2 15.0
  vertex -90.0 24.2 45.0
  vertex -30.0 24.2 45.0
 endloop
endfacet
facet normal 0.0 1.0 0.0
 outer loop
  vertex -30.0 24.2 -15.0
  vertex -30.0 24.2 -45.0
  vertex -90.0 24.2 45.0
 endloop
endfacet
facet normal 0.0 1.0 0.0
 outer loop
  vertex -30.0 24.2 15.0
  vertex -30.0 24.2 -15.0
  vertex -90.0 24.2 45.0
 endloop
endfacet
facet normal 0.0 -0.0 1.0
 outer loop
  vertex 30.0 5.0 -15.0
  vertex 30.0 17.8 -15.0
  vertex -30.0 24.2 -15.0
 endloop
endfacet
facet normal 0.0 0.0 1.0
 outer loop
  vertex 30.0 24.2 -15.0
  vertex -30.0 24.2 -15.0
  vertex 30.0 17.8 -15.0
 endloop
endfacet
facet normal 0.0 1.0 0.0
 outer loop
  vertex 30.0 24.2 -45.0
  vertex -30.0 24.2 -45.0
  vertex -30.0 24.2 -15.0
 endloop
endfacet
facet normal 0.0 1.0 -0.0
 outer loop
  vertex 30.0 24.2 -45.0
  vertex -30.0 24.2 -15.0
  vertex 30.0 24.2 -15.0
 endloop
endfacet
facet normal -1.0 -0.0 0.0
 outer loop
  vertex -30.0 24.2 45.0
  vertex -30.0 19.4 22.5
  vertex -30.0 5.0 45.0
 endloop
endfacet
facet normal -1.0 0.0 -0.0
 outer loop
  vertex -30.0 24.2 45.0
  vertex -30.0 24.2 15.0
  vertex -30.0 19.4 22.5
 endloop
endfacet
facet normal 0.0 1.0 0.0
 outer loop
  vertex 30.0 24.2 15.0
  vertex -30.0 24.2 15.0
  vertex -30.0 24.2 45.0
 endloop
endfacet
facet normal 0.0 1.0 0.0
 outer loop
  vertex 90.0 24.2 -45.0
  vertex 30.0 24.2 -45.0
  vertex 30.0 24.2 -15.0
 endloop
endfacet
facet normal -1.0 0.0 0.0
 outer loop
  vertex 30.0 5.0 45.0
  vertex 30.0 9.8 22.5
  vertex 30.0 5.0 15.0
 endloop
endfacet
facet normal 1.0 -0.0 0.0
 outer loop
  vertex -30.0 17.8 15.0
  vertex -30.0 24.2 -15.0
  vertex -30.0 24.2 15.0
 endloop
endfacet
facet normal -1.0 -0.0 0.0
 outer loop
  vertex 30.0 11.4 15.0
  vertex 30.0 5.0 -15.0
  vertex 30.0 5.0 15.0
 endloop
endfacet
facet normal -1.0 0.0 -0.0
 outer loop
  vertex 30.0 11.4 15.0
  vertex 30.0 17.8 -15.0
  vertex 30.0 5.0 -15.0
 endloop
endfacet
facet normal 1.0 0.0 0.0
 outer loop
  vertex -30.0 17.8 15.0
  vertex -30.0 11.4 -15.0
  vertex -30.0 24.2 -15.0
 endloop
endfacet
facet normal -1.0 0.0 0.0
 outer loop
  vertex 30.0 17.8 -15.0
  vertex 30.0 11.4 15.0
  vertex 30.0 24.2 15.0
 endloop
endfacet
facet normal 1.0 0.0 0.0
 outer loop
  vertex 30.0 19.4 -22.5
  vertex 30.0 17.8 -15.0
  vertex 30.0 5.0 -15.0
 endloop
endfacet
facet normal 1.0 0.0 -0.0
 outer loop
  vertex -30.0 11.4 -15.0
  vertex -30.0 17.8 15.0
  vertex -30.0 5.0 15.0
 endloop
endfacet
facet normal 0.0 0.0 -1.0
 outer loop
  vertex 30.0 5.0 -45.0
  vertex 90.0 24.2 -45.0
  vertex 90.0 5.0 -45.0
 endloop
endfacet
facet normal -1.0 0.0 0.0
 outer loop
  vertex 30.0 11.4 15.0
  vertex 30.0 9.8 22.5
  vertex 30.0 24.2 15.0
 endloop
endfacet
facet normal 1.0 0.0 0.0
 outer loop
  vertex 30.0 24.2 -15.0
  vertex 30.0 17.8 -15.0
  vertex 30.0 19.4 -22.5
 endloop
endfacet
facet normal 0.0 1.0 0.0
 outer loop
  vertex 90.0 24.2 -45.0
  vertex 30.0 24.2 15.0
  vertex 30.0 24.2 45.0
 endloop
endfacet
facet normal 1.0 0.0 0.0
 outer loop
  vertex -30.0 5.0 15.0
  vertex -30.0 5.0 -15.0
  vertex -30.0 11.4 -15.0
 endloop
endfacet
facet normal 0.0 0.0 -1.0
 outer loop
  vertex -30.0 5.0 -45.0
  vertex -30.0 24.2 -45.0
  vertex 30.0 24.2 -45.0
 endloop
endfacet
facet normal 0.0 0.0 -1.0
 outer loop
  vertex -30.0 5.0 -45.0
  vertex 30.0 24.2 -45.0
  vertex 30.0 5.0 -45.0
 endloop
endfacet
facet normal 0.0 -0.0 1.0
 outer loop
  vertex 30.0 5.0 45.0
  vertex 30.0 24.2 45.0
  vertex -30.0 24.2 45.0
 endloop
endfacet
facet normal 1.0 -0.0 0.0
 outer loop
  vertex 30.0 19.4 -22.5
  vertex 30.0 24.2 -45.0
  vertex 30.0 24.2 -15.0
 endloop
endfacet
facet normal 1.0 0.0 0.0
 outer loop
  vertex 30.0 19.4 -22.5
  vertex 30.0 5.0 -45.0
  vertex 30.0 24.2 -45.0
 endloop
endfacet
facet normal 1.0 0.0 0.0
 outer loop
  vertex 30.0 5.0 -45.0
  vertex 30.0 19.4 -22.5
  vertex 30.0 5.0 -15.0
 endloop
endfacet
endsolid
