solid
facet normal 0.0 0.0 1.0
 outer loop
  vertex -2.0 -2.0 0.0
  vertex 2.0 -2.0 0.0
  vertex 2.0 2.0 0.0
 endloop
endfacet
facet normal 0.0 0.0 1.0
 outer loop
  vertex -2.0 -2.0 0.0
  vertex 2.0 2.0 0.0
  vertex -2.0 2.0 0.0
 endloop
endfacet
facet normal 0.0 1.0 0.0
 outer loop
  vertex -1.0 0.0 0.0
  vertex -1.0 0.0 2.0
  vertex -0.5 0.0 2.0
 endloop
endfacet
facet normal 0.0 1.0 0.0
 outer loop
  vertex -1.0 0.0 0.0
  vertex -0.5 0.0 2.0
  vertex -0.5 0.0 0.0
 endloop
endfacet
facet normal 0.0 -1.0 0.0
 outer loop
  vertex 1.0 0.0 0.0
  vertex 1.0 0.0 2.0
  vertex 0.5 0.0 2.0
 endloop
endfacet
facet normal 0.0 -1.0 0.0
 outer loop
  vertex 1.0 0.0 0.0
  vertex 0.5 0.0 2.0
  vertex 0.5 0.0 0.0
 endloop
endfacet
facet normal 0.4472135954999579 -0.8944271909999159 0.0
 outer loop
  vertex -2.0 -1.0 1.0
  vertex 2.0 1.0 1.0
  vertex 2.0 1.0 1.5
 endloop
endfacet
facet normal 0.4472135954999579 -0.8944271909999159 0.0
 outer loop
  vertex -2.0 -1.0 1.0
  vertex 2.0 1.0 1.5
  vertex -2.0 -1.0 1.5
 endloop
endfacet
facet normal -0.4472135954999579 -0.8944271909999159 0.0
 outer loop
  vertex -2.0 1.0 1.0
  vertex 2.0 -1.0 1.0
  vertex 2.0 -1.0 1.5
 endloop
endfacet
facet normal -0.4472135954999579 -0.8944271909999159 0.0
 outer loop
  vertex -2.0 1.0 1.0
  vertex 2.0 -1.0 1.5
  vertex -2.0 1.0 1.5
 endloop
endfacet
facet normal 0.0 0.0 1.0
 outer loop
  vertex -1.5 -1.5 1.2
  vertex 1.5 -1.5 1.2
  vertex 1.5 1.5 1.2
 endloop
endfacet
facet normal 0.0 0.0 1.0
 outer loop
  vertex -1.5 -1.5 1.2
  vertex 1.5 1.5 1.2
  vertex -1.5 1.5 1.2
 endloop
endfacet
facet normal 0.0 0.0 1.0
 outer loop
  vertex -2.0 -2.0 0.0
  vertex 2.0 -2.0 0.0
  vertex 2.0 2.0 0.0
 endloop
endfacet
endsolid
