# Blender 4.3.2
# www.blender.org
mtllib 土块原点中心.mtl
o 立方体
v -30.000000 -14.600000 -15.000000
v -30.000000 -14.600000 15.000000
v -30.000000 -4.600000 -15.000000
v -30.000000 -4.600001 15.000000
v 30.000000 -14.600000 -15.000000
v 30.000000 -14.600000 15.000000
v 30.000000 -4.600000 -15.000000
v 30.000000 -4.600001 15.000000
v -90.000008 -14.600003 -45.000004
v -30.000000 -14.600000 -14.999998
v -90.000008 -14.599998 45.000004
v -30.000000 -14.600000 15.000002
v -90.000008 14.599998 -45.000004
v -30.000000 14.600000 -15.000001
v -90.000008 14.600002 45.000004
v -30.000000 14.600000 14.999999
v 30.000000 -14.600000 -14.999998
v 90.000008 -14.600003 -45.000004
v 30.000000 -14.600000 15.000002
v 90.000008 -14.599998 45.000004
v 30.000000 14.600000 -15.000001
v 90.000008 14.599998 -45.000004
v 30.000000 14.600000 14.999999
v 90.000008 14.600002 45.000004
vn -1.0000 -0.0000 -0.0000
vn -0.0000 1.0000 -0.0000
vn 1.0000 -0.0000 -0.0000
vn -0.0000 -1.0000 -0.0000
vn -0.0000 -0.0000 -1.0000
vn -0.0000 -0.0000 1.0000
vt 0.375000 0.000000
vt 0.625000 0.000000
vt 0.625000 0.250000
vt 0.375000 0.250000
vt 0.625000 0.500000
vt 0.375000 0.500000
vt 0.625000 0.750000
vt 0.375000 0.750000
vt 0.625000 1.000000
vt 0.375000 1.000000
vt 0.125000 0.500000
vt 0.125000 0.750000
vt 0.875000 0.500000
vt 0.875000 0.750000
vt 0.000000 0.000000
s 0
f 1/1/1 2/2/1 4/3/1 3/4/1
f 3/4/2 4/3/2 8/5/2 7/6/2
f 7/6/3 8/5/3 6/7/3 5/8/3
f 5/8/4 6/7/4 2/9/4 1/10/4
f 3/11/5 7/6/5 5/8/5 1/12/5
f 8/5/6 4/13/6 2/14/6 6/7/6
f 17/15/4 9/15/4 18/15/4
f 24/15/2 22/15/2 23/15/2
f 23/15/2 15/15/2 24/15/2
f 20/15/6 24/15/6 15/15/6
f 22/15/2 21/15/2 23/15/2
f 24/15/3 18/15/3 22/15/3
f 14/15/2 21/15/2 22/15/2
f 20/15/3 18/15/3 24/15/3
f 20/15/4 19/15/4 17/15/4
f 12/15/4 19/15/4 20/15/4
f 18/15/4 20/15/4 17/15/4
f 18/15/5 9/15/5 22/15/5
f 9/15/4 10/15/4 12/15/4
f 23/15/2 16/15/2 15/15/2
f 11/15/6 20/15/6 15/15/6
f 9/15/1 11/15/1 13/15/1
f 17/15/4 10/15/4 9/15/4
f 11/15/4 9/15/4 12/15/4
f 12/15/4 20/15/4 11/15/4
f 13/15/2 15/15/2 14/15/2
f 9/15/5 13/15/5 22/15/5
f 14/15/2 22/15/2 13/15/2
f 13/15/1 11/15/1 15/15/1
f 15/15/2 16/15/2 14/15/2
f 19/15/5 12/15/5 23/15/5
f 16/15/3 10/15/3 14/15/3
f 16/15/5 23/15/5 12/15/5
f 21/15/6 14/15/6 17/15/6
f 10/15/3 16/15/3 12/15/3
f 19/15/1 21/15/1 17/15/1
f 21/15/1 19/15/1 23/15/1
f 10/15/6 17/15/6 14/15/6
