solid
facet normal 0.0 -1.0 -0.0
 outer loop
  vertex 1.0 -0.0 2.0
  vertex 0.7 -0.0 1.2
  vertex 1.0 -0.0 1.2
 endloop
endfacet
facet normal 0.0 -1.0 0.0
 outer loop
  vertex 1.0 -0.0 -0.0
  vertex 1.0 -0.0 1.2
  vertex 0.7 -0.0 1.2
 endloop
endfacet
facet normal -0.0 -1.0 0.0
 outer loop
  vertex 1.0 -0.0 2.0
  vertex 0.5 -0.0 2.0
  vertex 0.7 -0.0 1.2
 endloop
endfacet
facet normal -0.0 0.0 1.0
 outer loop
  vertex 1.0 -0.0 -0.0
  vertex 2.0 -2.0 -0.0
  vertex 2.0 2.0 -0.0
 endloop
endfacet
facet normal -0.0 0.0 1.0
 outer loop
  vertex 0.5 -0.0 -0.0
  vertex 2.0 -2.0 -0.0
  vertex 1.0 -0.0 -0.0
 endloop
endfacet
facet normal 0.0 0.0 1.0
 outer loop
  vertex 0.5 -0.0 -0.0
  vertex 1.0 -0.0 -0.0
  vertex 2.0 2.0 -0.0
 endloop
endfacet
facet normal 0.0 0.0 1.0
 outer loop
  vertex -2.0 -2.0 -0.0
  vertex 0.5 -0.0 -0.0
  vertex 2.0 2.0 -0.0
 endloop
endfacet
facet normal 0.0 0.0 1.0
 outer loop
  vertex -2.0 -2.0 -0.0
  vertex 2.0 -2.0 -0.0
  vertex 0.5 -0.0 -0.0
 endloop
endfacet
facet normal 0.0 -1.0 0.0
 outer loop
  vertex 0.5 -0.0 1.2
  vertex 0.7 -0.0 1.2
  vertex 0.5 -0.0 2.0
 endloop
endfacet
facet normal 0.0 -1.0 0.0
 outer loop
  vertex 0.5 -0.0 1.2
  vertex 0.5 -0.0 -0.0
  vertex 0.7 -0.0 1.2
 endloop
endfacet
facet normal 0.0 -1.0 0.0
 outer loop
  vertex 1.0 -0.0 -0.0
  vertex 0.7 -0.0 1.2
  vertex 0.5 -0.0 -0.0
 endloop
endfacet
facet normal 0.0 1.0 0.0
 outer loop
  vertex -0.7 -0.0 1.2
  vertex -1.0 -0.0 1.2
  vertex -1.0 -0.0 2.0
 endloop
endfacet
facet normal -0.0 1.0 0.0
 outer loop
  vertex -1.0 -0.0 2.0
  vertex -0.5 -0.0 2.0
  vertex -0.7 -0.0 1.2
 endloop
endfacet
facet normal 0.0 1.0 0.0
 outer loop
  vertex -0.7 -0.0 1.2
  vertex -1.0 -0.0 -0.0
  vertex -1.0 -0.0 1.2
 endloop
endfacet
facet normal 0.0 -0.0 1.0
 outer loop
  vertex -0.5 -0.0 -0.0
  vertex 2.0 2.0 -0.0
  vertex -2.0 2.0 -0.0
 endloop
endfacet
facet normal 0.0 0.0 1.0
 outer loop
  vertex -2.0 -2.0 -0.0
  vertex 2.0 2.0 -0.0
  vertex -0.5 -0.0 -0.0
 endloop
endfacet
facet normal 0.0 -0.0 1.0
 outer loop
  vertex -1.0 -0.0 -0.0
  vertex -0.5 -0.0 -0.0
  vertex -2.0 2.0 -0.0
 endloop
endfacet
facet normal 0.0 0.0 1.0
 outer loop
  vertex -2.0 -2.0 -0.0
  vertex -1.0 -0.0 -0.0
  vertex -2.0 2.0 -0.0
 endloop
endfacet
facet normal 0.0 0.0 1.0
 outer loop
  vertex -2.0 -2.0 -0.0
  vertex -0.5 -0.0 -0.0
  vertex -1.0 -0.0 -0.0
 endloop
endfacet
facet normal 0.0 1.0 0.0
 outer loop
  vertex -1.0 -0.0 -0.0
  vertex -0.7 -0.0 1.2
  vertex -0.5 -0.0 -0.0
 endloop
endfacet
facet normal 0.0 1.0 0.0
 outer loop
  vertex -0.5 -0.0 2.0
  vertex -0.5 -0.0 1.2
  vertex -0.7 -0.0 1.2
 endloop
endfacet
facet normal -0.0 1.0 0.0
 outer loop
  vertex -0.7 -0.0 1.2
  vertex -0.5 -0.0 1.2
  vertex -0.5 -0.0 -0.0
 endloop
endfacet
facet normal -0.447213595499958 -0.894427190999916 -0.0
 outer loop
  vertex -0.0 -0.0 1.2
  vertex -0.400002 0.200001 1.2
  vertex -0.0 -0.0 1.0
 endloop
endfacet
facet normal -0.447213595499958 -0.894427190999916 0.0
 outer loop
  vertex -2.0 1.0 1.0
  vertex -0.0 -0.0 1.0
  vertex -0.400002 0.200001 1.2
 endloop
endfacet
facet normal -0.44721359549995787 -0.8944271909999157 0.0
 outer loop
  vertex -0.0 -0.0 1.2
  vertex -0.0 -0.0 1.25
  vertex -0.400002 0.200001 1.2
 endloop
endfacet
facet normal -0.4472135954999579 -0.8944271909999159 0.0
 outer loop
  vertex 1.5 -0.75 1.2
  vertex 2.0 -1.0 1.5
  vertex -0.0 -0.0 1.25
 endloop
endfacet
facet normal -0.4472135954999579 -0.8944271909999159 0.0
 outer loop
  vertex 2.0 -1.0 1.0
  vertex 2.0 -1.0 1.5
  vertex 1.5 -0.75 1.2
 endloop
endfacet
facet normal -0.447213595499958 -0.894427190999916 0.0
 outer loop
  vertex 2.0 -1.0 1.0
  vertex 1.5 -0.75 1.2
  vertex -0.0 -0.0 1.0
 endloop
endfacet
facet normal -0.44721359549995787 -0.8944271909999157 0.0
 outer loop
  vertex 1.5 -0.75 1.2
  vertex -0.0 -0.0 1.25
  vertex -0.0 -0.0 1.2
 endloop
endfacet
facet normal -0.447213595499958 -0.894427190999916 0.0
 outer loop
  vertex 1.5 -0.75 1.2
  vertex -0.0 -0.0 1.2
  vertex -0.0 -0.0 1.0
 endloop
endfacet
facet normal 0.447213595499958 -0.894427190999916 0.0
 outer loop
  vertex 1.5 0.75 1.2
  vertex -0.0 -0.0 1.0
  vertex 2.0 1.0 1.0
 endloop
endfacet
facet normal 0.4472135954999579 -0.8944271909999159 0.0
 outer loop
  vertex 1.5 0.75 1.2
  vertex 2.0 1.0 1.5
  vertex -0.0 -0.0 1.25
 endloop
endfacet
facet normal 0.447213595499958 -0.894427190999916 0.0
 outer loop
  vertex -0.400002 -0.200001 1.2
  vertex -2.0 -1.0 1.0
  vertex -0.0 -0.0 1.0
 endloop
endfacet
facet normal 0.447213595499958 -0.894427190999916 0.0
 outer loop
  vertex -0.0 -0.0 1.2
  vertex -0.400002 -0.200001 1.2
  vertex -0.0 -0.0 1.0
 endloop
endfacet
facet normal 0.44721359549995787 -0.8944271909999157 0.0
 outer loop
  vertex -0.0 -0.0 1.2
  vertex 1.5 0.75 1.2
  vertex -0.0 -0.0 1.25
 endloop
endfacet
facet normal 0.4472135954999579 -0.8944271909999159 0.0
 outer loop
  vertex 2.0 1.0 1.0
  vertex 2.0 1.0 1.5
  vertex 1.5 0.75 1.2
 endloop
endfacet
facet normal 0.44721359549995787 -0.8944271909999157 0.0
 outer loop
  vertex -0.400002 -0.200001 1.2
  vertex -0.0 -0.0 1.2
  vertex -0.0 -0.0 1.25
 endloop
endfacet
facet normal 0.447213595499958 -0.894427190999916 0.0
 outer loop
  vertex -0.0 -0.0 1.0
  vertex 1.5 0.75 1.2
  vertex -0.0 -0.0 1.2
 endloop
endfacet
facet normal -0.4472135954999579 -0.8944271909999159 -0.0
 outer loop
  vertex -0.0 -0.0 1.5
  vertex -0.0 -0.0 1.25
  vertex 2.0 -1.0 1.5
 endloop
endfacet
facet normal -0.447213595499958 -0.894427190999916 -0.0
 outer loop
  vertex -0.0 -0.0 1.5
  vertex -0.400002 0.200001 1.2
  vertex -0.0 -0.0 1.25
 endloop
endfacet
facet normal -0.4472135954999579 -0.8944271909999159 0.0
 outer loop
  vertex -1.5 0.75 1.2
  vertex -0.0 -0.0 1.5
  vertex -2.0 1.0 1.5
 endloop
endfacet
facet normal -0.4472135954999579 -0.8944271909999159 0.0
 outer loop
  vertex -0.400002 0.200001 1.2
  vertex -0.0 -0.0 1.5
  vertex -1.5 0.75 1.2
 endloop
endfacet
facet normal -0.4472135954999579 -0.8944271909999159 0.0
 outer loop
  vertex -2.0 1.0 1.0
  vertex -0.400002 0.200001 1.2
  vertex -1.5 0.75 1.2
 endloop
endfacet
facet normal -0.4472135954999579 -0.8944271909999159 0.0
 outer loop
  vertex -2.0 1.0 1.0
  vertex -1.5 0.75 1.2
  vertex -2.0 1.0 1.5
 endloop
endfacet
facet normal 0.0 0.0 1.0
 outer loop
  vertex 0.7 -0.0 1.2
  vertex 0.5 -0.0 1.2
  vertex 1.5 -0.75 1.2
 endloop
endfacet
facet normal 0.0 0.0 1.0
 outer loop
  vertex -0.0 -0.0 1.2
  vertex -1.5 -1.5 1.2
  vertex 1.5 -1.5 1.2
 endloop
endfacet
facet normal -0.0 0.0 1.0
 outer loop
  vertex 1.0 -0.0 1.2
  vertex 1.5 -0.75 1.2
  vertex 1.5 0.75 1.2
 endloop
endfacet
facet normal 0.0 0.0 1.0
 outer loop
  vertex 1.5 0.75 1.2
  vertex -0.0 -0.0 1.2
  vertex 0.5 -0.0 1.2
 endloop
endfacet
facet normal 0.0 0.0 1.0
 outer loop
  vertex 0.7 -0.0 1.2
  vertex 1.0 -0.0 1.2
  vertex 1.5 0.75 1.2
 endloop
endfacet
facet normal -0.0 0.0 1.0
 outer loop
  vertex 0.7 -0.0 1.2
  vertex 1.5 -0.75 1.2
  vertex 1.0 -0.0 1.2
 endloop
endfacet
facet normal 0.0 0.0 1.0
 outer loop
  vertex 1.5 0.75 1.2
  vertex 0.5 -0.0 1.2
  vertex 0.7 -0.0 1.2
 endloop
endfacet
facet normal 0.0 0.0 1.0
 outer loop
  vertex -0.0 -0.0 1.2
  vertex 1.5 0.75 1.2
  vertex 1.5 1.5 1.2
 endloop
endfacet
facet normal -0.0 0.0 1.0
 outer loop
  vertex -0.0 -0.0 1.2
  vertex 1.5 -0.75 1.2
  vertex 0.5 -0.0 1.2
 endloop
endfacet
facet normal 0.0 0.0 1.0
 outer loop
  vertex 1.5 -0.75 1.2
  vertex -0.0 -0.0 1.2
  vertex 1.5 -1.5 1.2
 endloop
endfacet
facet normal 0.0 0.0 1.0
 outer loop
  vertex -1.5 0.75 1.2
  vertex -1.0 -0.0 1.2
  vertex -0.400002 0.200001 1.2
 endloop
endfacet
facet normal 0.0 0.0 1.0
 outer loop
  vertex 1.5 1.5 1.2
  vertex -1.5 1.5 1.2
  vertex -0.400002 0.200001 1.2
 endloop
endfacet
facet normal -0.0 0.0 1.0
 outer loop
  vertex -0.400002 -0.200001 1.2
  vertex -1.5 -1.5 1.2
  vertex -0.0 -0.0 1.2
 endloop
endfacet
facet normal 0.0 0.0 1.0
 outer loop
  vertex -0.400002 -0.200001 1.2
  vertex -1.5 -0.75 1.2
  vertex -1.5 -1.5 1.2
 endloop
endfacet
facet normal 0.0 0.0 1.0
 outer loop
  vertex -0.400002 0.200001 1.2
  vertex -1.0 -0.0 1.2
  vertex -0.7 -0.0 1.2
 endloop
endfacet
facet normal 0.0 0.0 1.0
 outer loop
  vertex -1.5 0.75 1.2
  vertex -1.5 -0.75 1.2
  vertex -1.0 -0.0 1.2
 endloop
endfacet
facet normal 0.0 0.0 1.0
 outer loop
  vertex -0.400002 -0.200001 1.2
  vertex -0.7 -0.0 1.2
  vertex -1.0 -0.0 1.2
 endloop
endfacet
facet normal 0.0 0.0 1.0
 outer loop
  vertex -1.0 -0.0 1.2
  vertex -1.5 -0.75 1.2
  vertex -0.400002 -0.200001 1.2
 endloop
endfacet
facet normal 0.0 0.0 1.0
 outer loop
  vertex 1.5 1.5 1.2
  vertex -0.400002 0.200001 1.2
  vertex -0.0 -0.0 1.2
 endloop
endfacet
facet normal 0.0 0.0 1.0
 outer loop
  vertex -1.5 1.5 1.2
  vertex -1.5 0.75 1.2
  vertex -0.400002 0.200001 1.2
 endloop
endfacet
facet normal 0.0 0.0 1.0
 outer loop
  vertex -0.400002 0.200001 1.2
  vertex -0.5 -0.0 1.2
  vertex -0.0 -0.0 1.2
 endloop
endfacet
facet normal 0.0 0.0 1.0
 outer loop
  vertex -0.400002 0.200001 1.2
  vertex -0.7 -0.0 1.2
  vertex -0.5 -0.0 1.2
 endloop
endfacet
facet normal -0.0 0.0 1.0
 outer loop
  vertex -0.5 -0.0 1.2
  vertex -0.400002 -0.200001 1.2
  vertex -0.0 -0.0 1.2
 endloop
endfacet
facet normal 0.0 0.0 1.0
 outer loop
  vertex -0.5 -0.0 1.2
  vertex -0.7 -0.0 1.2
  vertex -0.400002 -0.200001 1.2
 endloop
endfacet
facet normal 0.4472135954999579 -0.8944271909999159 0.0
 outer loop
  vertex -1.5 -0.75 1.2
  vertex -0.400002 -0.200001 1.2
  vertex -0.0 -0.0 1.5
 endloop
endfacet
facet normal 0.447213595499958 -0.894427190999916 0.0
 outer loop
  vertex -0.0 -0.0 1.25
  vertex -0.0 -0.0 1.5
  vertex -0.400002 -0.200001 1.2
 endloop
endfacet
facet normal 0.4472135954999579 -0.8944271909999159 0.0
 outer loop
  vertex 2.0 1.0 1.5
  vertex -0.0 -0.0 1.5
  vertex -0.0 -0.0 1.25
 endloop
endfacet
facet normal 0.4472135954999579 -0.8944271909999159 0.0
 outer loop
  vertex -1.5 -0.75 1.2
  vertex -0.0 -0.0 1.5
  vertex -2.0 -1.0 1.5
 endloop
endfacet
facet normal 0.4472135954999579 -0.8944271909999159 0.0
 outer loop
  vertex -2.0 -1.0 1.0
  vertex -1.5 -0.75 1.2
  vertex -2.0 -1.0 1.5
 endloop
endfacet
facet normal 0.4472135954999579 -0.8944271909999159 0.0
 outer loop
  vertex -2.0 -1.0 1.0
  vertex -0.400002 -0.200001 1.2
  vertex -1.5 -0.75 1.2
 endloop
endfacet
endsolid
